<?xml version="1.0" encoding="utf-8"?>
<!-- Generator: Adobe Illustrator 26.0.3, SVG Export Plug-In . SVG Version: 6.00 Build 0)  -->
<svg version="1.1" id="Layer_1" xmlns="http://www.w3.org/2000/svg" xmlns:xlink="http://www.w3.org/1999/xlink" x="0px" y="0px"
	 viewBox="0 0 150 150" style="enable-background:new 0 0 150 150;" xml:space="preserve">
<style type="text/css">
	.st0{fill:#0B141D;}
	.st1{fill:#002B3A;}
	.st2{fill:#5B6E7D;}
	.st3{fill:#A49F9C;}
	.st4{fill:#E9D6C5;}
	.st5{fill:#FFFFFF;}
</style>
<g id="_x34_">
	<g>
		<g>
			<g>
				<g>
					<circle class="st0" cx="74.77" cy="75.04" r="66.66"/>
				</g>
			</g>
		</g>
		<g>
			<g>
				<g>
					<g>
						<path class="st1" d="M74.79,66.19c-1.67,0-3.32,0.1-4.94,0.3c-0.93,1.24-1.81,2.55-2.61,3.92
							C68.8,67.88,71.6,66.19,74.79,66.19z"/>
					</g>
					<g>
						<path class="st1" d="M67.25,79.67c0.8,1.37,1.67,2.68,2.61,3.92c1.62,0.2,3.26,0.3,4.94,0.3C71.6,83.89,68.8,82.2,67.25,79.67
							z"/>
					</g>
					<g>
						<path class="st1" d="M83.64,75.04c0,1.51-0.38,2.94-1.05,4.18c0.78-1.37,1.47-2.77,2.07-4.18c-0.6-1.42-1.29-2.81-2.07-4.18
							C83.26,72.1,83.64,73.53,83.64,75.04z"/>
					</g>
				</g>
			</g>
		</g>
		<g>
			<g>
				<g>
					<g>
						<path class="st2" d="M67.16,79.53c-0.01-0.02-0.03-0.04-0.04-0.06c-0.02-0.03-0.03-0.06-0.05-0.09
							c-0.03-0.05-0.06-0.1-0.09-0.16c-0.78-1.37-1.47-2.77-2.07-4.18c-0.97,2.29-1.71,4.62-2.23,6.98c2.3,0.73,4.7,1.26,7.16,1.56
							c-0.93-1.24-1.81-2.55-2.61-3.92C67.22,79.62,67.19,79.58,67.16,79.53z"/>
					</g>
					<g>
						<path class="st2" d="M79.73,66.49c-1.5-1.98-3.15-3.79-4.94-5.42c-1.79,1.63-3.44,3.44-4.94,5.42c1.62-0.2,3.26-0.3,4.94-0.3
							C76.46,66.19,78.11,66.29,79.73,66.49z"/>
					</g>
					<g>
						<path class="st2" d="M82.59,79.22c-0.03,0.05-0.06,0.1-0.09,0.16c-0.02,0.03-0.03,0.06-0.05,0.09
							c-0.01,0.02-0.03,0.04-0.04,0.06c-0.03,0.05-0.06,0.09-0.08,0.14c-0.8,1.37-1.67,2.68-2.61,3.92c2.46-0.3,4.86-0.83,7.16-1.56
							c-0.52-2.36-1.26-4.7-2.23-6.98C84.06,76.46,83.37,77.85,82.59,79.22z"/>
					</g>
				</g>
			</g>
		</g>
		<g>
			<g>
				<g>
					<g>
						<path class="st3" d="M64.92,75.04c-0.97-2.29-1.71-4.62-2.23-6.98c-4.78,1.52-9.16,3.91-12.97,6.98
							c3.81,3.08,8.2,5.47,12.97,6.98C63.21,79.66,63.95,77.32,64.92,75.04z"/>
					</g>
					<g>
						<path class="st3" d="M79.73,66.49c2.46,0.3,4.86,0.83,7.16,1.56c1.08-4.9,1.2-9.89,0.44-14.73
							c-4.57,1.76-8.83,4.37-12.54,7.74C76.58,62.7,78.23,64.51,79.73,66.49z"/>
					</g>
					<g>
						<path class="st3" d="M86.89,82.02c-2.3,0.73-4.7,1.26-7.16,1.56c-1.5,1.98-3.15,3.79-4.94,5.42c3.7,3.38,7.97,5.98,12.54,7.74
							C88.09,91.91,87.96,86.92,86.89,82.02z"/>
					</g>
				</g>
			</g>
		</g>
		<g>
			<g>
				<g>
					<g>
						<path class="st4" d="M62.25,96.75c1.38,8.82,5.7,17.12,12.54,23.34c6.83-6.22,11.15-14.52,12.54-23.34
							c-4.57-1.76-8.83-4.37-12.54-7.74C71.09,92.39,66.82,94.99,62.25,96.75z"/>
					</g>
					<g>
						<path class="st4" d="M86.89,68.05c4.78,1.52,9.16,3.91,12.97,6.98c6.95-5.61,11.97-13.5,13.95-22.53
							c-8.81-2.81-18.15-2.4-26.48,0.81C88.09,58.16,87.96,63.16,86.89,68.05z"/>
					</g>
					<g>
						<path class="st4" d="M54.61,71.66c0.05-0.03,0.1-0.06,0.16-0.09c0.15-0.09,0.31-0.18,0.46-0.26c0.04-0.03,0.09-0.05,0.13-0.07
							c0.27-0.15,0.54-0.3,0.81-0.44c0.09-0.05,0.17-0.09,0.26-0.13c0.14-0.07,0.27-0.14,0.41-0.21c0.12-0.06,0.24-0.12,0.36-0.18
							c0.18-0.09,0.37-0.18,0.55-0.27c0.13-0.06,0.27-0.13,0.4-0.19c0.11-0.05,0.22-0.1,0.33-0.15c0.19-0.09,0.39-0.17,0.58-0.25
							c0.09-0.04,0.19-0.08,0.28-0.12c0.19-0.08,0.38-0.16,0.57-0.23c0.08-0.03,0.17-0.07,0.25-0.1c0.24-0.1,0.49-0.19,0.73-0.28
							c0.03-0.01,0.05-0.02,0.08-0.03c0.24-0.09,0.47-0.17,0.71-0.25c0.07-0.02,0.14-0.05,0.21-0.07c0.26-0.09,0.52-0.18,0.79-0.26
							c-0.07-0.31-0.13-0.61-0.19-0.92c-0.48-2.45-0.72-4.93-0.73-7.39c0-0.62,0.01-1.23,0.03-1.84c0.06-1.53,0.21-3.06,0.45-4.57
							c-0.3-0.12-0.61-0.23-0.92-0.34c-0.09-0.03-0.19-0.06-0.28-0.1c-0.22-0.08-0.45-0.15-0.67-0.23c-0.1-0.03-0.19-0.06-0.29-0.1
							c-0.25-0.08-0.51-0.16-0.76-0.24c-0.06-0.02-0.12-0.04-0.18-0.05c-0.32-0.09-0.64-0.18-0.96-0.27
							c-0.05-0.01-0.11-0.03-0.16-0.04c-0.27-0.07-0.54-0.14-0.81-0.2c-0.08-0.02-0.16-0.04-0.24-0.06
							c-0.26-0.06-0.53-0.12-0.8-0.18c-0.06-0.01-0.12-0.03-0.18-0.04c-0.67-0.14-1.34-0.26-2.02-0.37
							c-0.04-0.01-0.08-0.01-0.13-0.02c-0.3-0.05-0.61-0.09-0.91-0.13c-0.04-0.01-0.09-0.01-0.13-0.02
							c-1.04-0.13-2.09-0.22-3.14-0.27c-0.02,0-0.04,0-0.06,0c-1.43-0.06-2.87-0.05-4.3,0.04l0,0l0,0c-3.2,0.2-6.41,0.79-9.54,1.79
							c1.97,9.03,7,16.92,13.95,22.53c1.25-1.01,2.57-1.95,3.94-2.8C53.97,72.04,54.29,71.85,54.61,71.66z"/>
					</g>
				</g>
			</g>
		</g>
		<g>
			<g>
				<path class="st5" d="M113.81,52.51c-3.14-1-6.34-1.59-9.55-1.79c-2.6,9.35-6.4,18.54-11.49,27.34
					c-5.1,8.83-11.16,16.73-17.99,23.67C67.97,94.79,61.9,86.89,56.8,78.06c-1.11-1.92-2.16-3.87-3.15-5.83
					c-3.54-7-6.31-14.21-8.34-21.52c-3.2,0.2-6.41,0.79-9.54,1.79c-1.2,0.38-2.39,0.83-3.56,1.33c2.58,9.45,6.27,18.74,11.11,27.69
					c0.59,1.09,1.2,2.18,1.82,3.26c6.9,11.95,15.42,22.41,25.11,31.25l4.54,4.14l4.54-4.14c9.69-8.84,18.21-19.3,25.11-31.25
					c5.75-9.95,10.03-20.36,12.93-30.96C116.19,53.34,115.01,52.89,113.81,52.51z"/>
			</g>
		</g>
	</g>
</g>
</svg>
